<?xml version="1.0" standalone="no"?>
<!DOCTYPE svg PUBLIC "-//W3C//DTD SVG 20010904//EN"
 "http://www.w3.org/TR/2001/REC-SVG-20010904/DTD/svg10.dtd">
<svg version="1.0" xmlns="http://www.w3.org/2000/svg"
 width="260.000000pt" height="260.000000pt" viewBox="0 0 260.000000 260.000000"
 preserveAspectRatio="xMidYMid meet">
<metadata>
Created by potrace 1.14, written by Peter Selinger 2001-2017
</metadata>
<g transform="translate(0.000000,260.000000) scale(0.100000,-0.100000)"
fill="#000000" stroke="none">
<path d="M865 2333 c-15 -15 -14 -17 22 -29 21 -8 39 -14 39 -14 1 0 4 -9 7
-20 3 -11 10 -20 15 -20 7 0 8 11 2 29 -9 32 -29 71 -30 58 0 -4 -9 -3 -19 3
-15 7 -24 6 -36 -7z"/>
<path d="M964 2325 c-4 -9 -2 -21 5 -28 13 -13 18 -9 23 17 4 24 -20 33 -28
11z"/>
<path d="M1056 2315 c-8 -8 -20 -15 -26 -15 -6 0 -8 -5 -5 -11 4 -6 -1 -17
-11 -24 -18 -14 -18 -14 -1 -15 10 0 20 7 23 15 4 8 10 12 15 9 5 -3 9 0 9 5
0 6 7 11 15 11 8 0 15 9 15 20 0 24 -13 26 -34 5z"/>
<path d="M770 2277 c0 -6 -3 -8 -6 -4 -19 19 -117 -65 -106 -91 2 -8 8 -10 11
-5 3 4 12 9 19 11 17 3 15 -24 -4 -42 -9 -9 -11 -16 -4 -16 6 0 9 -4 6 -9 -3
-5 0 -14 7 -19 14 -12 65 8 79 31 4 7 8 8 8 3 0 -5 8 -2 19 8 17 15 19 15 39
-1 22 -19 68 -104 74 -138 1 -11 6 -22 10 -26 4 -3 9 -18 11 -35 2 -16 6 -34
9 -40 9 -14 13 -98 5 -111 -4 -7 -16 -10 -27 -8 -11 2 -20 -2 -20 -8 0 -7 -4
-6 -10 3 -6 9 -13 11 -17 5 -5 -6 -42 -19 -83 -29 -41 -10 -87 -27 -101 -37
-14 -10 -37 -21 -52 -24 -15 -4 -27 -11 -27 -16 0 -5 -15 -18 -32 -29 -18 -11
-28 -20 -23 -20 6 0 -5 -9 -22 -20 -18 -11 -33 -24 -33 -29 0 -6 -10 -19 -22
-31 -12 -11 -18 -20 -14 -20 4 0 0 -7 -8 -16 -9 -8 -16 -23 -16 -31 0 -9 -3
-13 -7 -10 -10 11 -60 -112 -55 -135 1 -5 -2 -8 -6 -8 -5 0 -9 -6 -9 -12 -1
-7 -6 -42 -11 -78 -11 -68 -9 -376 2 -445 9 -53 14 -79 16 -82 2 -2 3 -6 4
-10 1 -5 8 -26 14 -48 14 -49 15 -95 2 -95 -30 0 46 -62 80 -65 3 0 22 -8 43
-18 21 -10 48 -20 61 -21 12 -1 27 -6 34 -10 7 -4 12 -5 12 -2 0 3 15 -1 33
-8 17 -7 38 -11 45 -9 6 3 12 1 12 -4 0 -6 6 -10 13 -10 6 0 39 -4 72 -8 74
-9 117 -13 173 -16 24 -2 46 -7 48 -11 3 -5 12 -4 20 3 11 9 14 9 14 0 0 -9 5
-9 20 -1 11 6 20 7 20 3 0 -10 206 -10 216 0 12 11 26 8 18 -5 -5 -7 -3 -8 7
-2 16 10 19 10 97 18 31 4 86 12 122 20 41 9 73 10 88 5 23 -9 57 -15 142 -26
58 -7 215 -7 260 1 89 14 105 19 112 29 4 6 10 8 14 5 3 -4 13 -1 21 7 8 8 23
15 34 15 15 0 20 6 17 22 -3 20 -9 23 -58 25 -30 1 -84 4 -120 8 -36 4 -77 7
-92 8 -16 0 -28 3 -28 7 0 3 -13 5 -30 4 -16 -1 -30 1 -30 5 0 8 38 28 54 29
5 0 13 7 18 16 5 9 15 16 22 16 7 0 21 9 31 20 10 11 20 18 22 16 6 -5 94 82
119 119 12 17 19 36 17 43 -3 7 1 11 7 10 7 -2 14 4 16 12 23 90 30 110 39
110 5 0 3 5 -5 10 -9 6 -10 10 -3 10 6 0 10 9 8 20 -2 11 -1 20 3 20 4 0 7 13
8 30 1 16 -2 28 -5 26 -3 -2 -6 27 -5 65 0 38 -2 69 -6 69 -3 0 -7 16 -8 36
-2 20 -7 45 -12 55 -6 10 -11 29 -12 43 -1 15 -5 26 -8 26 -8 0 -30 62 -30 83
0 9 8 21 18 26 9 6 14 11 10 11 -4 0 1 15 12 33 11 17 20 40 20 49 0 9 4 18 9
20 13 4 37 143 35 203 -2 73 -13 128 -27 137 -6 4 -8 8 -3 8 5 0 3 7 -4 15 -9
11 -16 12 -30 3 -10 -7 -16 -16 -14 -20 3 -4 0 -8 -7 -8 -7 0 -10 -3 -6 -6 7
-7 -28 -80 -40 -86 -5 -1 -18 -16 -31 -32 -12 -16 -22 -25 -22 -21 0 4 -13 -9
-30 -30 -32 -40 -50 -91 -50 -140 0 -29 -2 -31 -34 -27 -41 5 -79 -14 -128
-63 -31 -32 -48 -41 -80 -44 -13 -2 -9 -36 8 -59 14 -21 80 -57 97 -54 4 1 7
-2 7 -7 0 -12 137 -14 145 -2 3 6 12 8 20 4 8 -3 15 -1 15 5 0 11 25 10 37 -2
12 -12 11 -90 -1 -98 -8 -5 -7 -8 2 -8 8 0 10 -5 5 -12 -4 -7 -8 -20 -10 -28
-8 -51 -73 -143 -100 -141 -4 0 -18 -2 -30 -5 -29 -8 -90 13 -103 34 -5 9 -10
13 -10 8 0 -13 -78 92 -85 116 -4 10 -11 18 -16 18 -6 0 -8 4 -5 9 4 5 3 11
-2 13 -7 3 -66 98 -67 108 0 8 -67 103 -89 128 -46 50 -86 91 -86 87 0 -2 -23
18 -52 46 -28 27 -55 49 -59 49 -5 0 -16 8 -26 18 -10 10 -34 25 -53 32 -19 8
-38 18 -41 23 -3 4 -12 10 -20 11 -15 3 -38 11 -77 27 -13 5 -28 7 -33 4 -5
-4 -9 -1 -9 5 0 7 -6 10 -13 7 -8 -3 -20 -1 -28 3 -8 5 -19 4 -28 -3 -12 -9
-13 -9 -7 1 5 8 0 12 -14 12 -21 0 -22 3 -16 78 4 42 11 78 16 80 4 2 6 15 4
28 -3 18 -1 23 7 18 7 -4 9 -3 5 4 -9 15 39 131 71 167 14 17 22 23 17 15 -7
-13 -5 -13 9 -1 12 9 17 10 17 2 0 -7 4 -10 9 -6 6 3 19 -5 30 -17 24 -25 49
-12 36 19 -5 10 -9 21 -9 25 -3 20 -48 66 -69 70 -13 3 -45 -5 -71 -18 -25
-12 -46 -20 -46 -17 0 3 -7 0 -15 -7 -8 -7 -22 -10 -30 -6 -8 3 -15 0 -15 -6
0 -6 -8 -4 -18 5 -10 10 -24 17 -30 17 -7 0 -12 4 -12 8 0 15 -54 36 -97 38
-24 1 -43 -3 -43 -9z"/>
<path d="M596 2273 c-4 -5 -12 -9 -17 -9 -5 -1 -10 -2 -11 -3 -2 -2 -14 -4
-26 -7 -13 -2 -32 -14 -42 -27 -23 -28 -9 -46 22 -28 34 18 93 70 87 76 -3 3
-9 2 -13 -2z"/>
<path d="M1315 2251 c11 -5 32 -20 47 -34 33 -30 70 -45 66 -26 -4 19 -22 38
-30 32 -5 -2 -8 0 -8 6 0 6 -17 15 -37 20 -45 13 -67 13 -38 2z"/>
<path d="M1307 2139 c7 -9 10 -19 6 -22 -3 -4 -1 -7 5 -7 7 0 12 -9 12 -20 0
-10 5 -30 11 -44 9 -19 14 -22 24 -13 8 8 10 18 4 28 -4 9 -6 19 -3 21 2 3 -2
11 -11 18 -8 7 -15 19 -15 28 0 8 -3 12 -7 9 -3 -4 -13 -1 -22 6 -14 10 -14
10 -4 -4z"/>
<path d="M618 2113 c-10 -2 -18 -9 -18 -14 0 -5 -8 -17 -18 -27 -25 -25 -44
-81 -34 -98 11 -20 36 8 52 61 7 22 19 50 26 63 8 12 13 21 12 21 -2 -1 -11
-3 -20 -6z"/>
</g>
</svg>
