<?xml version="1.0" standalone="no"?>
<svg xmlns:xlink="http://www.w3.org/1999/xlink" id="wave" style="transform:rotate(0deg); transition: 0.3s" viewBox="0 0 1440 190" version="1.1" xmlns="http://www.w3.org/2000/svg"><defs><linearGradient id="sw-gradient-0" x1="0" x2="0" y1="1" y2="0"><stop stop-color="rgba(62, 135.703, 243, 1)" offset="0%"/><stop stop-color="rgba(11, 255, 250.867, 1)" offset="100%"/></linearGradient></defs><path style="transform:translate(0, 0px); opacity:1" fill="url(#sw-gradient-0)" d="M0,76L13.3,76C26.7,76,53,76,80,91.8C106.7,108,133,139,160,142.5C186.7,146,213,120,240,91.8C266.7,63,293,32,320,44.3C346.7,57,373,114,400,123.5C426.7,133,453,95,480,72.8C506.7,51,533,44,560,50.7C586.7,57,613,76,640,76C666.7,76,693,57,720,60.2C746.7,63,773,89,800,101.3C826.7,114,853,114,880,114C906.7,114,933,114,960,95C986.7,76,1013,38,1040,34.8C1066.7,32,1093,63,1120,91.8C1146.7,120,1173,146,1200,142.5C1226.7,139,1253,108,1280,104.5C1306.7,101,1333,127,1360,129.8C1386.7,133,1413,114,1440,114C1466.7,114,1493,133,1520,145.7C1546.7,158,1573,165,1600,158.3C1626.7,152,1653,133,1680,107.7C1706.7,82,1733,51,1760,41.2C1786.7,32,1813,44,1840,60.2C1866.7,76,1893,95,1907,104.5L1920,114L1920,190L1906.7,190C1893.3,190,1867,190,1840,190C1813.3,190,1787,190,1760,190C1733.3,190,1707,190,1680,190C1653.3,190,1627,190,1600,190C1573.3,190,1547,190,1520,190C1493.3,190,1467,190,1440,190C1413.3,190,1387,190,1360,190C1333.3,190,1307,190,1280,190C1253.3,190,1227,190,1200,190C1173.3,190,1147,190,1120,190C1093.3,190,1067,190,1040,190C1013.3,190,987,190,960,190C933.3,190,907,190,880,190C853.3,190,827,190,800,190C773.3,190,747,190,720,190C693.3,190,667,190,640,190C613.3,190,587,190,560,190C533.3,190,507,190,480,190C453.3,190,427,190,400,190C373.3,190,347,190,320,190C293.3,190,267,190,240,190C213.3,190,187,190,160,190C133.3,190,107,190,80,190C53.3,190,27,190,13,190L0,190Z"/></svg>